<svg width="299" height="299" xmlns="http://www.w3.org/2000/svg" xmlns:xlink="http://www.w3.org/1999/xlink" xml:space="preserve" overflow="hidden"><g transform="translate(-399 -216)"><path d="M596.795 333.834C591.914 333.828 587.059 334.563 582.399 336.014 601.392 317.302 601.621 286.737 582.909 267.743 564.197 248.75 533.632 248.522 514.638 267.234 495.645 285.945 495.417 316.511 514.128 335.504 514.297 335.676 514.467 335.845 514.638 336.014 489.193 328.021 462.087 342.169 454.094 367.614 446.101 393.058 460.248 420.165 485.693 428.158 503.548 433.767 523.035 428.555 535.705 414.782 533.961 443.284 528.744 469.35 516.336 478.656L580.702 478.656C568.293 469.35 563.076 443.284 561.332 414.782 579.388 434.383 609.916 435.635 629.517 417.579 649.118 399.523 650.37 368.995 632.313 349.394 623.171 339.469 610.289 333.826 596.795 333.834Z"/></g></svg>