<svg width="1034" height="1035" xmlns="http://www.w3.org/2000/svg" xmlns:xlink="http://www.w3.org/1999/xlink" xml:space="preserve" overflow="hidden"><g transform="translate(-3192 -629)"><rect x="3195.5" y="632.5" width="1027" height="1028" stroke="#FFFFFF" stroke-width="6.875" stroke-miterlimit="8" fill="#FFFFFF"/><g><g><g><path d="M278.201 656.35C266.269 636.36 250.205 616.578 225.464 591.474 208.573 574.326 198.14 564.512 165.288 534.656 149.793 520.607 132.282 504.543 126.291 499.016 83.7289 459.553 57.6443 430.99 37.5515 401.961 17.5102 373.035 5.7851 345.298 1.49793 316.631-0.0516526 306.352-0.206611 288.996 1.13636 280.474 5.16526 255.629 16.6838 233.263 34.9172 215.082 87.293 162.964 177.427 158.729 235.536 205.732 240.856 210.02 250.309 219.369 254.441 224.379L256.559 226.962 254.854 215.082C242.354 129.338 218.026 65.1856 185.123 31.0432 168.594 13.8946 150.774 4.23552 129.596 1.08471 123.243 0.103305 124.586 0.103305 280.474 0.103305 366.992 0.103305 436.155 0.309916 434.192 0.568179 379.905 6.8698 340.339 59.7621 316.631 157.799 314.203 167.923 310.019 188.429 308.108 199.637 306.662 208.315 303.717 228.46 303.872 228.666 303.924 228.718 305.629 226.755 307.591 224.379 318.49 211.053 335.587 197.468 351.599 189.359 408.521 160.743 480.834 170.609 524.688 213.015 544.419 232.075 555.989 253.356 560.534 278.924 562.187 288.325 562.187 305.319 560.483 316.631 556.196 345.298 544.47 373.035 524.429 401.961 504.233 431.145 478.252 459.553 435.432 499.274 429.595 504.646 412.188 520.607 396.692 534.656 363.738 564.615 353.356 574.377 336.517 591.474 311.775 616.578 295.711 636.36 283.78 656.35 282.385 658.726 281.145 660.637 280.99 660.637 280.835 660.637 279.596 658.726 278.201 656.35Z" transform="matrix(1 0 0 -1.16161 3428.01 1530)"/></g></g></g></g></svg>